<svg xmlns="http://www.w3.org/2000/svg" width="383.3" height="383.3" viewBox="0 0 383.3 383.3" fill="#fff" stroke="currentColor" class="w-8 h-8 text-white"><path d="M273.2 106.9a949 949 0 00-73-102.8 11 11 0 00-17 0 950 950 0 00-73 102.8C75 164.7 57.2 212.6 57.2 249a134.5 134.5 0 00268.7 0c0-36.5-17.8-84.3-52.8-142.1zm-63 227c-8 2-16 3-24.3 3-50.2 0-91-38-91-84.6 0-11.2 3-24.4 8.8-39 1-2.5 3.8-4 6.6-3.3 2.8.6 4.6 3 4.4 5.6a85 85 0 00-.6 9.1c0 50.8 41 93.3 95.1 98.9 2.7.2 4.8 2.3 5 4.8a5.3 5.3 0 01-4 5.5z"></path></svg>
